<svg width="41" height="42" viewBox="0 0 41 42" fill="none" xmlns="http://www.w3.org/2000/svg">
<path d="M30.6521 0.281265C31.9402 0.29029 33.214 0.502194 34.3997 0.904695C35.5854 1.30719 36.6595 1.89228 37.5596 2.62608C39.3926 4.11158 40.3904 6.07705 40.3676 8.15495C40.3448 10.2329 39.304 12.1793 37.4354 13.633L27.951 21.0113L37.2714 28.5674C39.1076 30.0529 40.1055 32.0184 40.0826 34.0963C40.0598 36.1742 39.019 38.1207 37.1505 39.5743C33.4167 42.4764 26.961 42.4189 23.2886 39.4426L0.227172 20.7531L23.6977 2.49697C24.613 1.77993 25.6991 1.21484 26.8929 0.834478C28.0867 0.454116 29.3645 0.266073 30.6521 0.281265ZM30.2531 36.5992C30.6827 36.6049 31.1093 36.5429 31.508 36.4169C31.9068 36.2908 32.2699 36.1032 32.5764 35.8648C32.8828 35.6264 33.1265 35.3419 33.2934 35.0279C33.4603 34.714 33.547 34.3766 33.5486 34.0355C33.5562 33.3428 33.2236 32.6885 32.6115 32.1925L18.7119 20.9253L32.8562 9.91924C33.4791 9.4347 33.826 8.78933 33.8336 8.0941C33.8412 7.39887 33.5086 6.74717 32.8965 6.25113C32.2802 5.77278 31.456 5.50107 30.5955 5.49257C29.735 5.48407 28.9045 5.73944 28.277 6.20551L9.46626 20.8392L27.9517 35.8176C28.2514 36.0623 28.6091 36.2575 29.0042 36.3917C29.3993 36.5258 29.8239 36.5964 30.2531 36.5992Z" fill="black"/>
</svg>
