<svg width="40" height="42" viewBox="0 0 40 42" fill="none" xmlns="http://www.w3.org/2000/svg">
<path d="M9.80152 41.4337C8.51339 41.4367 7.23732 41.2366 6.04725 40.8452C4.85717 40.4538 3.77675 39.8787 2.86858 39.1534C1.01936 37.685 0 35.7289 0 33.6509C0 31.5729 1.01936 29.6168 2.87185 28.1459L12.2748 20.6796L2.87185 13.2107C1.01936 11.7423 0 9.78623 0 7.70822C0 5.63021 1.01936 3.67413 2.87185 2.20318C6.57355 -0.73353 13.0295 -0.736123 16.7345 2.20578L40 20.6796L16.7312 39.1534C15.8238 39.8789 14.744 40.4541 13.5545 40.8455C12.3649 41.237 11.0892 41.4369 9.80152 41.4337ZM9.80152 5.11395C9.37186 5.11223 8.94604 5.17816 8.54867 5.30793C8.1513 5.43769 7.79027 5.62872 7.48645 5.86996C7.18264 6.11121 6.94206 6.39788 6.77864 6.71341C6.61521 7.02893 6.53218 7.36706 6.53435 7.70822C6.53435 8.40089 6.87413 9.05205 7.49163 9.54237L21.5143 20.6796L7.49163 31.8168C6.87413 32.3071 6.53435 32.9556 6.53435 33.6509C6.53435 34.3462 6.87413 34.9947 7.49163 35.4851C8.11317 35.9576 8.94032 36.2217 9.80087 36.2221C10.6614 36.2226 11.489 35.9595 12.1114 35.4876L30.7604 20.6796L12.1114 5.87407C11.8091 5.63212 11.4492 5.44031 11.0526 5.30981C10.656 5.17932 10.2308 5.11274 9.80152 5.11395Z" fill="black"/>
</svg>
