<svg width="100" height="100" viewBox="0 0 100 100" fill="none" xmlns="http://www.w3.org/2000/svg">
<path d="M77.0833 45.8333V77.0833M77.0833 77.0833V91.6667H22.9167V77.0833M77.0833 77.0833H91.6667V45.8333C91.6667 39.5833 87.5 32.2917 81.25 27.0833C75 21.875 66.6667 20.8333 66.6667 20.8333L50 37.5M22.9167 77.0833H8.33334V45.8333C8.33334 39.5833 12.5 32.2917 18.75 27.0833C25 21.875 33.3333 20.8333 33.3333 20.8333L50 37.5M22.9167 77.0833V45.8333M50 37.5V56.25" stroke="black" stroke-width="4" stroke-linecap="round" stroke-linejoin="round"/>
<path d="M18.75 27.0833C25 21.875 33.3333 20.8333 33.3333 20.8333L50 37.5L66.6667 20.8333C66.6667 20.8333 75 21.875 81.25 27.0833L85.4167 17.7083L81.25 8.33333H18.75L14.5833 17.7083L18.75 27.0833Z" fill="#2F88FF" stroke="black" stroke-width="4" stroke-linecap="round" stroke-linejoin="round"/>
</svg>
