<svg width="101" height="100" viewBox="0 0 101 100" fill="none" xmlns="http://www.w3.org/2000/svg">
<path d="M77.3055 45.8335V77.0835M77.3055 77.0835V91.6668H23.1388V77.0835M77.3055 77.0835H91.8888V45.8335C91.8888 39.5835 87.7222 32.2918 81.4722 27.0835C75.2222 21.8752 66.8888 20.8335 66.8888 20.8335L50.2222 37.5002M23.1388 77.0835H8.5555V45.8335C8.5555 39.5835 12.7222 32.2918 18.9722 27.0835C25.2222 21.8752 33.5555 20.8335 33.5555 20.8335L50.2222 37.5002M23.1388 77.0835V45.8335M50.2222 37.5002V56.2502" stroke="white" stroke-width="4" stroke-linecap="round" stroke-linejoin="round"/>
<path d="M18.9722 27.0835C25.2222 21.8752 33.5555 20.8335 33.5555 20.8335L50.2222 37.5002L66.8888 20.8335C66.8888 20.8335 75.2222 21.8752 81.4722 27.0835L85.6388 17.7085L81.4722 8.3335H18.9722L14.8055 17.7085L18.9722 27.0835Z" fill="#2F88FF" stroke="white" stroke-width="4" stroke-linecap="round" stroke-linejoin="round"/>
</svg>
